<svg width="56" height="42" viewBox="0 0 56 42" fill="none" xmlns="http://www.w3.org/2000/svg">
<path d="M35.2924 0.500017C32.5028 0.496471 29.7414 1.05247 27.1749 2.13445C24.6083 3.21643 22.2897 4.80197 20.3591 6.79539V3.8325L15.7484 7.84872C13.377 7.01923 10.7901 7.01923 8.41867 7.84872L3.808 3.8325V13.214C3.83046 13.9642 4.0187 14.7004 4.35948 15.3709C4.70025 16.0413 5.18528 16.6297 5.78044 17.0947H3.91378C2.87395 17.106 1.8804 17.522 1.148 18.2529C0.415601 18.9837 0.00320718 19.9705 0 21H52.0551C52.0436 25.3971 50.2737 29.6108 47.1324 32.7194C43.9911 35.8281 39.7341 37.5787 35.2924 37.5885C34.7877 37.6166 34.3129 37.8348 33.9656 38.1985C33.6182 38.5622 33.4247 39.0437 33.4247 39.5443C33.4247 40.0448 33.6182 40.5263 33.9656 40.89C34.3129 41.2537 34.7877 41.4719 35.2924 41.5C40.7844 41.5 46.0515 39.3402 49.9349 35.4957C53.8183 31.6512 56 26.4369 56 21C56 15.5631 53.8183 10.3488 49.9349 6.50433C46.0515 2.65983 40.7844 0.500017 35.2924 0.500017ZM7.24889 15.1974C6.61146 14.9636 6.06047 14.5443 5.66842 13.9945C5.27636 13.4448 5.06162 12.7904 5.05244 12.1175C5.50453 11.6195 6.09742 11.2676 6.75411 11.1075C7.41081 10.9473 8.10097 10.9864 8.73497 11.2195C9.36898 11.4526 9.91753 11.8691 10.3094 12.4148C10.7013 12.9605 10.9183 13.6102 10.9324 14.2796C10.4816 14.7798 9.88963 15.1346 9.23297 15.2982C8.57631 15.4619 7.88518 15.4267 7.24889 15.1974ZM16.9431 15.1974C16.3076 15.4286 15.6168 15.4665 14.9593 15.3062C14.3019 15.146 13.7078 14.7949 13.2533 14.2981C13.2692 13.6288 13.4876 12.9796 13.8803 12.4346C14.2729 11.8895 14.8217 11.4737 15.4558 11.2408C16.0898 11.0079 16.7798 10.9687 17.4365 11.1283C18.0933 11.2879 18.6865 11.6389 19.1396 12.136C19.1241 12.8051 18.9067 13.4543 18.5152 13.9999C18.1237 14.5455 17.5762 14.9626 16.9431 15.1974Z" fill="#2D3648"/>
<path d="M15.6547 13.2141C15.6294 13.4955 15.6628 13.779 15.7527 14.0471C15.8426 14.3151 15.9871 14.5621 16.1773 14.7726C16.3709 14.5636 16.5188 14.3173 16.612 14.0492C16.7051 13.7811 16.7414 13.4968 16.7187 13.2141C16.7409 12.9325 16.7044 12.6493 16.6112 12.3822C16.5181 12.1152 16.3704 11.8699 16.1773 11.6619C15.9876 11.8715 15.8433 12.1174 15.7534 12.3844C15.6635 12.6514 15.6299 12.9338 15.6547 13.2141Z" fill="#2D3648"/>
<path d="M7.46558 13.2141C7.44281 13.4968 7.47913 13.7811 7.57227 14.0492C7.66541 14.3173 7.81337 14.5636 8.00691 14.7726C8.20046 14.5636 8.34841 14.3173 8.44155 14.0492C8.53469 13.7811 8.57101 13.4968 8.54825 13.2141C8.57051 12.9325 8.53394 12.6493 8.4408 12.3822C8.34767 12.1152 8.19997 11.8699 8.00691 11.6619C7.81385 11.8699 7.66615 12.1152 7.57302 12.3822C7.47988 12.6493 7.44331 12.9325 7.46558 13.2141Z" fill="#2D3648"/>
</svg>