<svg width="90" height="90" fill="none" xmlns="http://www.w3.org/2000/svg"><mask id="a" style="mask-type:luminance" maskUnits="userSpaceOnUse" x="0" y="0" width="90" height="90"><path d="M89.476 0H0v89.476h89.476V0Z" fill="#fff"/></mask><g mask="url(#a)"><mask id="b" style="mask-type:luminance" maskUnits="userSpaceOnUse" x="0" y="0" width="90" height="90"><path d="M89.476 0H0v89.476h89.476V0Z" fill="#fff"/></mask><g mask="url(#b)"><mask id="c" style="mask-type:luminance" maskUnits="userSpaceOnUse" x="0" y="0" width="90" height="90"><path d="M89.476.005H0v89.476h89.476V.005Z" fill="#fff"/></mask><g clip-path="url(#d)" mask="url(#c)"><path d="M44.74 83.217c-21.249 0-38.475-17.226-38.475-38.475 0-21.249 17.226-38.474 38.475-38.474 21.25 0 38.475 17.225 38.475 38.474 0 21.25-17.226 38.475-38.475 38.475Z" fill="#fff"/><path d="M59.147 33.737c0 1.342-.403 2.64-1.119 3.758-.268.402-.582.76-.895 1.073L46.486 49.216a2.107 2.107 0 0 1-2.953 0L32.885 38.568a7.119 7.119 0 0 1-.894-1.073c-2.058-3.132-1.208-7.337 1.923-9.44 2.327-1.521 5.324-1.521 7.606.045l2.326 1.566a2.088 2.088 0 0 0 2.371 0l2.013-1.387c2.73-1.88 6.98-1.61 9.216.85 1.074 1.297 1.7 2.908 1.7 4.608Z" fill="#FC2B2B"/><path d="M44.74.004C20.045.004.002 20.047.002 44.742c0 24.696 20.043 44.738 44.738 44.738 24.696 0 44.738-20.042 44.738-44.738C89.434 20.047 69.436.05 44.741.004Zm2.908 6.756c20.938 1.61 36.64 19.863 35.075 40.8-.492 6.577-2.64 12.84-6.263 18.254a4.954 4.954 0 0 1-3.356 2.192c-1.968.403-3.981.671-6.04.85a28.712 28.712 0 0 1-9.17-.671 13.265 13.265 0 0 1-7.024-4.205 11.828 11.828 0 0 1-2.685-7.337v-.895c0-.627.224-1.208.671-1.655l10.424-10.38a11.358 11.358 0 0 0 1.61-2.013c3.356-5.1 2.685-11.856-1.61-16.15-3.713-3.714-9.35-4.787-14.137-2.685-.179.09-.403.09-.626 0-6.532-2.773-14.093.269-16.866 6.8a12.76 12.76 0 0 0 1.073 12.08 14.136 14.136 0 0 0 1.656 2.013l10.379 10.335c.447.447.67 1.028.67 1.655v1.118a11.87 11.87 0 0 1-2.683 7.158 13.53 13.53 0 0 1-6.98 4.161c-2.997.716-6.084.94-9.17.671a57.735 57.735 0 0 1-6.22-.85 5.17 5.17 0 0 1-3.355-2.237C1.39 48.232 6.221 24.61 23.714 12.98a38.37 38.37 0 0 1 23.934-6.22Zm-1.297 40.309-.716.715a1.188 1.188 0 0 1-1.655 0l-8.813-8.858c-2.372-2.37-2.372-6.263 0-8.634 1.163-1.119 2.684-1.79 4.294-1.79a6.03 6.03 0 0 1 3.445 1.074l1.253.85c.403.269.94.269 1.342 0l1.253-.85c2.818-1.879 6.576-1.163 8.455 1.655 1.61 2.416 1.342 5.637-.716 7.695l-8.142 8.143ZM23.982 76.64c-.224-.18-.313-.493-.134-.716a.55.55 0 0 1 .447-.224c1.119.045 2.282 0 3.445-.09 1.924-.089 3.848-.402 5.771-.894 1.969-.537 3.848-1.298 5.592-2.327a18.998 18.998 0 0 0 4.832-4.026c.403-.492 1.163-.537 1.655-.134l.135.134a19 19 0 0 0 4.831 4.026 23.794 23.794 0 0 0 5.637 2.327c1.88.492 3.803.805 5.772.895 1.073.089 2.192.089 3.266.089.313 0 .536.224.536.537a.55.55 0 0 1-.223.447c-12.661 8.187-28.946 8.187-41.562-.044Z" fill="#1B76FF"/></g></g></g><defs><clipPath id="d"><path fill="#fff" transform="matrix(-1 0 0 1 89.478 .004)" d="M0 0h89.476v89.476H0z"/></clipPath></defs></svg>