<!-- icon666.com - MILLIONS vector ICONS FREE --><svg id="Line" enable-background="new 0 0 32 32" viewBox="0 0 32 32" xmlns="http://www.w3.org/2000/svg"><path id="XMLID_196_" d="m24.687 23.273c2.404-1.692 4.274-4.086 5.259-6.948.072-.21.072-.44 0-.65-1.992-5.787-7.596-9.675-13.946-9.675-2.479 0-4.84.599-6.92 1.665l-5.373-5.372c-.391-.391-1.023-.391-1.414 0s-.391 1.023 0 1.414l5.02 5.02c-2.404 1.692-4.274 4.086-5.259 6.948-.072.21-.072.44 0 .65 2.882 8.374 12.886 12.099 20.866 8.009l5.372 5.372c.391.391 1.023.391 1.414 0s.391-1.023 0-1.414zm-8.687-15.273c5.376 0 10.128 3.2 11.937 8-.913 2.421-2.575 4.433-4.688 5.835l-2.364-2.364c.699-.981 1.115-2.177 1.115-3.471 0-3.309-2.691-6-6-6-1.294 0-2.49.416-3.471 1.115l-1.952-1.952c1.658-.747 3.499-1.163 5.423-1.163zm-3.433 5.981 5.452 5.452c-.595.352-1.279.567-2.019.567-2.206 0-4-1.794-4-4 0-.74.215-1.424.567-2.019zm1.414-1.414c.595-.352 1.279-.567 2.019-.567 2.206 0 4 1.794 4 4 0 .74-.215 1.424-.567 2.019zm-9.918 3.433c.913-2.421 2.575-4.433 4.688-5.835l2.364 2.364c-.699.981-1.115 2.177-1.115 3.471 0 3.309 2.691 6 6 6 1.294 0 2.49-.416 3.471-1.115l1.952 1.952c-6.738 3.034-14.812-.075-17.36-6.837z"></path></svg>