<svg width="11" height="14" viewBox="0 0 11 14" fill="none" xmlns="http://www.w3.org/2000/svg">
<path d="M11 1.75V2.45C11 2.6433 10.8461 2.8 10.6562 2.8H0.34375C0.153902 2.8 0 2.6433 0 2.45V1.75C0 1.5567 0.153902 1.4 0.34375 1.4H3.4375V0.7C3.4375 0.313401 3.7453 0 4.125 0H6.875C7.2547 0 7.5625 0.313401 7.5625 0.7V1.4H10.6562C10.8461 1.4 11 1.5567 11 1.75ZM1.28562 12.698C1.33626 13.4327 1.93729 14.0018 2.66062 14H8.35312C9.07646 14.0018 9.67749 13.4327 9.72812 12.698L10.3125 4.2H0.6875L1.28562 12.698Z" fill="#2D3648" fill-opacity="0.5"/>
</svg>
