<svg width="16" height="16" viewBox="0 0 16 16" fill="none" xmlns="http://www.w3.org/2000/svg">
<path d="M8 0C3.5889 0 0 3.5889 0 8C0 12.4111 3.5889 16 8 16C12.4111 16 16 12.4111 16 8C16 3.5889 12.4111 0 8 0ZM8 14.4007C4.4708 14.4007 1.59925 11.5294 1.59925 8C1.59925 4.47062 4.4708 1.59925 8 1.59925C11.5292 1.59925 14.4007 4.4708 14.4007 8C14.4007 11.5292 11.5292 14.4007 8 14.4007Z" fill="#969AA3"/>
<path d="M8.78589 7.76887C8.79229 7.728 8.79851 7.68713 8.79851 7.64449V4.15705C8.79851 3.71548 8.44045 3.35742 7.99888 3.35742C7.55731 3.35742 7.19925 3.71548 7.19925 4.15705V7.64449C7.19925 7.71254 7.19072 8.48658 7.44181 8.71172L9.91621 10.9299C10.0688 11.0669 10.2597 11.1341 10.4496 11.1341C10.6689 11.1341 10.8875 11.0443 11.0455 10.8682C11.3403 10.5393 11.3127 10.0339 10.9838 9.73915L8.78589 7.76887Z" fill="#969AA3"/>
</svg>
