<svg width="16" height="16" viewBox="0 0 16 16" fill="none" xmlns="http://www.w3.org/2000/svg">
<path d="M8.11817 10.7929C8.11167 10.8677 8.1084 10.9405 8.1084 11.0136C8.1084 11.2098 8.15033 11.3755 8.26458 11.4765L8.26522 11.4771C8.37378 11.5714 8.53119 11.6091 8.71685 11.6091C8.83643 11.6091 8.93553 11.6008 9.0048 11.5785C8.98127 11.7384 8.93981 11.8775 8.88188 11.9967C8.80268 12.1576 8.70464 12.2897 8.58929 12.3929L8.65596 12.4674M8.11817 10.7929C8.12426 10.7161 8.13828 10.6377 8.16004 10.5596L9.03693 6.14365H7.43241L6.59615 10.347L6.56663 10.5106C6.5666 10.5108 6.56657 10.511 6.56654 10.5112C6.54871 10.6171 6.53447 10.7175 6.52384 10.8123C6.50786 10.9549 6.5 11.0847 6.5 11.2026C6.5 11.4774 6.53366 11.7068 6.59865 11.8936C6.66468 12.0835 6.75307 12.2358 6.86255 12.3541C6.97266 12.4731 7.10201 12.5602 7.25011 12.6154C7.40154 12.6711 7.56546 12.7 7.74263 12.7C7.89443 12.7 8.04494 12.6746 8.19448 12.6238C8.34091 12.5742 8.47241 12.4969 8.58947 12.3927L8.65596 12.4674M8.11817 10.7929C8.11818 10.7928 8.11819 10.7927 8.1182 10.7925L8.21782 10.8012L8.11813 10.7933C8.11814 10.7932 8.11815 10.7931 8.11817 10.7929ZM8.65596 12.4674C8.78212 12.3546 8.88757 12.2116 8.97168 12.0407L6.46802 10.494C6.44988 10.6018 6.43534 10.7042 6.42446 10.8012C6.40814 10.9468 6.4 11.0804 6.4 11.2026C6.4 11.4851 6.43453 11.7261 6.5042 11.9265C6.57387 12.1268 6.66864 12.2918 6.78916 12.422C6.90968 12.5522 7.05218 12.6484 7.21538 12.7092C7.37858 12.7693 7.55432 12.8 7.74263 12.8C7.90583 12.8 8.06718 12.7726 8.22661 12.7185C8.38605 12.6644 8.52916 12.5803 8.65596 12.4674ZM8.94098 3.37528C8.83452 3.32514 8.71925 3.3 8.59443 3.3C8.46962 3.3 8.35434 3.32514 8.24788 3.37528C8.13902 3.42656 8.04405 3.49631 7.96307 3.58428C7.88198 3.67237 7.81805 3.7747 7.77085 3.89287C7.77085 3.89287 7.77085 3.89288 7.77085 3.89288L8.94098 3.37528ZM8.94098 3.37528C9.05013 3.42669 9.1466 3.4967 9.22962 3.58503M8.94098 3.37528L9.22962 3.58503M9.22962 3.58503C9.31277 3.6735 9.37902 3.77605 9.42787 3.89405M9.22962 3.58503L9.42787 3.89405M9.42787 3.89405C9.47537 4.00965 9.5 4.13419 9.5 4.26985M9.42787 3.89405L9.5 4.26985M9.5 4.26985C9.5 4.40549 9.47538 4.52999 9.4279 4.64558M9.5 4.26985L9.4279 4.64558M9.4279 4.64558C9.37919 4.76261 9.31333 4.86256 9.23108 4.94647C9.14829 5.03093 9.05192 5.09791 8.94265 5.14696C8.83553 5.19504 8.71962 5.21967 8.59443 5.21967C8.46925 5.21967 8.35334 5.19504 8.24622 5.14696C8.13722 5.09803 8.04236 5.0313 7.96164 4.94722C7.88146 4.8637 7.81791 4.764 7.77085 4.64681L9.4279 4.64558ZM8 0.1C12.363 0.1 15.9 3.63695 15.9 8C15.9 12.363 12.363 15.9 8 15.9C3.63695 15.9 0.1 12.363 0.1 8C0.1 3.63695 3.63695 0.1 8 0.1ZM8 1.5C4.41015 1.5 1.5 4.41015 1.5 8C1.5 11.5899 4.41015 14.5 8 14.5C11.5899 14.5 14.5 11.5899 14.5 8C14.5 4.41015 11.5899 1.5 8 1.5Z" fill="#FF6F41" stroke="#FFF1EC" stroke-width="0.2"/>
</svg>
