<svg width="16" height="16" viewBox="0 0 16 16" fill="none" xmlns="http://www.w3.org/2000/svg">
<path d="M15.9143 9.16731C15.9701 8.78629 16 8.39657 16 8C16 7.60343 15.9701 7.21371 15.9143 6.83269L14.1067 6.31611C13.9664 5.8064 13.7643 5.32274 13.5083 4.87314L14.4217 3.22903C13.9547 2.6016 13.3984 2.04503 12.771 1.57829L11.1269 2.49166C10.6773 2.23589 10.1936 2.0336 9.68389 1.89326L9.16731 0.0857143C8.78629 0.0299429 8.39657 0 8 0C7.60343 0 7.21371 0.0299429 6.83269 0.0857143L6.31611 1.89326C5.8064 2.0336 5.32274 2.23566 4.87314 2.49166L3.22903 1.57829C2.6016 2.04526 2.04503 2.6016 1.57829 3.22903L2.49166 4.87314C2.23589 5.32274 2.0336 5.8064 1.89326 6.31611L0.0857143 6.83269C0.0299429 7.21371 0 7.60343 0 8C0 8.39657 0.0299429 8.78629 0.0857143 9.16731L1.89326 9.68389C2.0336 10.1936 2.23566 10.6773 2.49166 11.1269L1.57829 12.771C2.04526 13.3984 2.6016 13.955 3.22903 14.4217L4.87314 13.5083C5.32274 13.7641 5.8064 13.9664 6.31634 14.1067L6.83291 15.9143C7.21371 15.9701 7.60343 16 8 16C8.39657 16 8.78629 15.9701 9.16731 15.9143L9.68389 14.1067C10.1936 13.9664 10.6773 13.7643 11.1271 13.5083L12.7712 14.4217C13.3986 13.9547 13.9552 13.3982 14.4219 12.771L13.5086 11.1269C13.7643 10.6773 13.9666 10.1936 14.107 9.68389L15.9143 9.16731ZM8 11.4286C6.10651 11.4286 4.57143 9.89349 4.57143 8C4.57143 6.10651 6.10651 4.57143 8 4.57143C9.89349 4.57143 11.4286 6.10651 11.4286 8C11.4286 9.89349 9.89349 11.4286 8 11.4286Z" fill="#8D94A3"/>
</svg>
