<svg width="12" height="24" viewBox="0 0 12 24" fill="none" xmlns="http://www.w3.org/2000/svg">
<path d="M0.383154 12.8963H2.98714V23.6165C2.98714 23.8282 3.15864 23.9997 3.3703 23.9997H7.78546C7.99711 23.9997 8.16861 23.8282 8.16861 23.6165V12.9468H11.1621C11.3568 12.9468 11.5205 12.8008 11.5427 12.6074L11.9974 8.66081C12.0099 8.55222 11.9755 8.44348 11.9028 8.36202C11.8301 8.28049 11.726 8.23382 11.6168 8.23382H8.16877V5.75987C8.16877 5.0141 8.57031 4.63593 9.36237 4.63593C9.47525 4.63593 11.6168 4.63593 11.6168 4.63593C11.8285 4.63593 12 4.46435 12 4.25277V0.63013C12 0.418476 11.8285 0.246976 11.6168 0.246976H8.50985C8.48793 0.245903 8.43927 0.244141 8.36755 0.244141C7.82845 0.244141 5.9546 0.349968 4.4744 1.7117C2.83434 3.22071 3.06232 5.02751 3.1168 5.34078V8.23374H0.383154C0.1715 8.23374 0 8.40524 0 8.6169V12.5131C0 12.7248 0.1715 12.8963 0.383154 12.8963Z" fill="#1D62EF"/>
</svg>
