<svg width="33" height="19" viewBox="0 0 33 19" fill="none" xmlns="http://www.w3.org/2000/svg">
<path d="M31.5653 14.8192C30.8468 13.9602 30.0303 13.1902 29.2407 12.4456C28.9599 12.1808 28.6696 11.907 28.3897 11.6348C27.5863 10.8523 27.5571 10.5584 28.1932 9.66964C28.6333 9.05703 29.0999 8.44361 29.5512 7.85036C29.9604 7.31213 30.3837 6.75552 30.7894 6.19711L30.8727 6.08229C31.6481 5.01369 32.4499 3.90871 32.8767 2.57574C32.9875 2.22406 33.1038 1.70655 32.8378 1.2738C32.5719 0.84142 32.0562 0.709507 31.6913 0.647893C31.5108 0.617403 31.3316 0.613242 31.1653 0.613242L26.0876 0.609623L26.0456 0.609261C25.2779 0.609261 24.7605 0.969624 24.464 1.71107C24.181 2.41949 23.87 3.17387 23.5152 3.89116C22.8092 5.3195 21.9125 6.96461 20.6149 8.33667L20.5601 8.39502C20.4068 8.55906 20.2332 8.7448 20.1063 8.7448C20.0869 8.7448 20.0657 8.74109 20.0418 8.73358C19.773 8.62926 19.5926 7.98119 19.6008 7.67973C19.6009 7.67557 19.6009 7.6714 19.6009 7.66724L19.5974 1.82163C19.5974 1.80136 19.5959 1.78128 19.5933 1.76119C19.4641 0.81093 19.178 0.219402 18.0969 0.00850415C18.0682 0.00280421 18.0389 0 18.0096 0H12.7298C11.8696 0 11.3957 0.34824 10.9501 0.869468C10.8298 1.0088 10.5795 1.29886 10.7036 1.65072C10.8295 2.00783 11.2381 2.08419 11.3712 2.10898C12.0318 2.2342 12.4041 2.63663 12.5095 3.33981C12.6937 4.56086 12.7163 5.86416 12.5808 7.44141C12.543 7.87977 12.4682 8.21833 12.345 8.50758C12.3164 8.57507 12.215 8.79538 12.1115 8.79547C12.0786 8.79547 11.9835 8.78262 11.8103 8.66374C11.4007 8.38426 11.1011 7.98544 10.7517 7.4928C9.56326 5.81983 8.56581 3.97684 7.70198 1.85728C7.38161 1.07702 6.78329 0.640203 6.01647 0.627356C5.1739 0.614599 4.40999 0.608446 3.68141 0.608446C2.88534 0.608446 2.14731 0.615775 1.42664 0.630704C0.809696 0.641561 0.382959 0.825768 0.158417 1.17862C-0.0664871 1.53175 -0.0518628 1.99561 0.201927 2.5571C2.23352 7.05581 4.07553 10.3268 6.1747 13.1633C7.64558 15.1482 9.1209 16.5221 10.8171 17.4866C12.6042 18.5049 14.6069 19 16.9395 19C17.2039 19 17.4773 18.9936 17.753 18.9807C19.1084 18.915 19.6113 18.4263 19.6749 17.1118C19.7051 16.44 19.7789 15.7355 20.1104 15.1346C20.3197 14.7561 20.5148 14.7561 20.5789 14.7561C20.7025 14.7561 20.8556 14.8127 21.0201 14.9188C21.3152 15.1106 21.5681 15.3676 21.7755 15.5921C21.9707 15.8053 22.1637 16.0207 22.3569 16.2362C22.7739 16.7014 23.205 17.1823 23.6553 17.6383C24.641 18.6373 25.727 19.0766 26.9742 18.9813H31.6296C31.6395 18.9813 31.6495 18.9809 31.6594 18.9803C32.1233 18.9498 32.5251 18.6935 32.7617 18.2771C33.0548 17.7613 33.0489 17.1033 32.7459 16.5165C32.4021 15.8529 31.9561 15.286 31.5653 14.8192Z" fill="#1261FF"/>
</svg>
