<svg width="27" height="22" viewBox="0 0 27 22" fill="none" xmlns="http://www.w3.org/2000/svg">
<path fill-rule="evenodd" clip-rule="evenodd" d="M20.682 21.7571C21.0442 22.0079 21.5111 22.0706 21.9273 21.9166C22.3436 21.7615 22.6496 21.4139 22.7418 20.9926C23.7194 16.5002 26.0909 5.12947 26.9807 1.04296C27.0482 0.734964 26.9357 0.414864 26.6882 0.209163C26.4407 0.00346312 26.0976 -0.0559371 25.7916 0.0551631C21.0746 1.76236 6.5478 7.09187 0.610184 9.24017C0.233317 9.37657 -0.0119271 9.73077 0.000447575 10.1191C0.0139473 10.5085 0.281691 10.8462 0.667557 10.9595C3.33037 11.7383 6.82567 12.8218 6.82567 12.8218C6.82567 12.8218 8.45913 17.6453 9.31074 20.0983C9.41761 20.4063 9.66398 20.6483 9.9891 20.7319C10.3131 20.8144 10.6596 20.7275 10.9015 20.5042C12.2694 19.2414 14.3844 17.2889 14.3844 17.2889C14.3844 17.2889 18.4028 20.1698 20.682 21.7571ZM8.29601 12.2124L10.1848 18.3042L10.6045 14.4465C10.6045 14.4465 17.9022 8.01037 22.0623 4.34187C22.1838 4.23407 22.2007 4.05367 22.0994 3.92717C21.9993 3.80067 21.8148 3.77097 21.6765 3.85677C16.8548 6.86747 8.29601 12.2124 8.29601 12.2124Z" fill="#24B8F8"/>
</svg>
