<svg width="14" height="14" viewBox="0 0 14 14" fill="none" xmlns="http://www.w3.org/2000/svg">
<path d="M7.83398 1.16659C7.83398 0.706348 7.46089 0.333252 7.00065 0.333252C6.54041 0.333252 6.16732 0.706348 6.16732 1.16659V6.16658H1.16732C0.70708 6.16658 0.333984 6.53968 0.333984 6.99992C0.333984 7.46016 0.70708 7.83325 1.16732 7.83325H6.16732V12.8333C6.16732 13.2935 6.54041 13.6666 7.00065 13.6666C7.46089 13.6666 7.83398 13.2935 7.83398 12.8333V7.83325H12.834C13.2942 7.83325 13.6673 7.46016 13.6673 6.99992C13.6673 6.53968 13.2942 6.16658 12.834 6.16658H7.83398V1.16659Z" fill="white"/>
</svg>
