<svg width="16" height="19" viewBox="0 0 16 19" fill="none" xmlns="http://www.w3.org/2000/svg">
<path d="M10.4512 13.8968L10.884 14.1382L11.2759 13.8347C11.7152 13.4945 12.2205 13.3016 12.7871 13.3016C14.1343 13.3016 15.25 14.3942 15.25 15.765C15.25 17.1457 14.1459 18.25 12.7871 18.25C11.4284 18.25 10.3243 17.1457 10.3243 15.765C10.3243 15.4847 10.3868 15.1825 10.4963 14.8701L10.7053 14.2737L10.153 13.9666L5.65504 11.4649L5.20024 11.2119L4.8041 11.5494C4.37126 11.9182 3.81237 12.1467 3.21285 12.1467C1.85413 12.1467 0.75 11.0424 0.75 9.66175C0.75 8.28109 1.85413 7.17679 3.21285 7.17679C3.81237 7.17679 4.37126 7.4053 4.8041 7.77408L5.20211 8.11317L5.65793 7.857L10.263 5.26904L10.8973 4.91258L10.5603 4.26777C10.4085 3.97752 10.3243 3.62464 10.3243 3.23496C10.3243 1.8543 11.4284 0.75 12.7871 0.75C14.1459 0.75 15.25 1.85431 15.25 3.23496C15.25 4.61562 14.1459 5.71992 12.7871 5.71992C12.2964 5.71992 11.839 5.57171 11.4639 5.32541L11.0825 5.075L10.6848 5.29847L5.88696 7.99427L5.34809 8.29705L5.54235 8.88384C5.6273 9.14042 5.6757 9.40585 5.6757 9.68331C5.6757 9.93672 5.62819 10.202 5.54235 10.4612L5.34748 11.0499L5.88899 11.3519L10.4512 13.8968Z" stroke="#A1A8B2" stroke-width="1.5"/>
</svg>
