<svg width="14" height="15" viewBox="0 0 14 15" fill="none" xmlns="http://www.w3.org/2000/svg">
<path fill-rule="evenodd" clip-rule="evenodd" d="M7 0C4.85223 0 3.11111 1.67893 3.11111 3.75C3.11111 5.82107 4.85223 7.5 7 7.5C9.14777 7.5 10.8889 5.82107 10.8889 3.75C10.8889 1.67893 9.14777 0 7 0ZM4.66667 3.75C4.66667 2.50736 5.71134 1.5 7 1.5C8.28866 1.5 9.33333 2.50736 9.33333 3.75C9.33333 4.99264 8.28866 6 7 6C5.71134 6 4.66667 4.99264 4.66667 3.75Z" fill="#2D3648"/>
<path d="M3.88889 9C2.85749 9 1.86834 9.39509 1.13903 10.0984C0.409721 10.8016 0 11.7554 0 12.75V14.25C0 14.6642 0.348223 15 0.777778 15C1.20733 15 1.55556 14.6642 1.55556 14.25V12.75C1.55556 12.1533 1.80139 11.581 2.23897 11.159C2.67656 10.7371 3.27005 10.5 3.88889 10.5H10.1111C10.7299 10.5 11.3234 10.7371 11.761 11.159C12.1986 11.581 12.4444 12.1533 12.4444 12.75V14.25C12.4444 14.6642 12.7927 15 13.2222 15C13.6518 15 14 14.6642 14 14.25V12.75C14 11.7554 13.5903 10.8016 12.861 10.0984C12.1317 9.39509 11.1425 9 10.1111 9H3.88889Z" fill="#2D3648"/>
</svg>
