<svg width="14" height="14" viewBox="0 0 14 14" fill="none" xmlns="http://www.w3.org/2000/svg">
<path d="M2.33398 0.333984C1.80355 0.333984 1.29484 0.544698 0.919771 0.919771C0.544698 1.29484 0.333984 1.80355 0.333984 2.33398V4.33398C0.333984 4.70217 0.632461 5.00065 1.00065 5.00065C1.36884 5.00065 1.66732 4.70217 1.66732 4.33398V2.33398C1.66732 2.15717 1.73756 1.9876 1.86258 1.86258C1.9876 1.73756 2.15717 1.66732 2.33398 1.66732H4.33398C4.70217 1.66732 5.00065 1.36884 5.00065 1.00065C5.00065 0.632461 4.70217 0.333984 4.33398 0.333984H2.33398Z" fill="#717D96"/>
<path d="M9.66732 0.333984C9.29913 0.333984 9.00065 0.632461 9.00065 1.00065C9.00065 1.36884 9.29913 1.66732 9.66732 1.66732H11.6673C11.8441 1.66732 12.0137 1.73756 12.1387 1.86258C12.2637 1.9876 12.334 2.15717 12.334 2.33398V4.33398C12.334 4.70217 12.6325 5.00065 13.0007 5.00065C13.3688 5.00065 13.6673 4.70217 13.6673 4.33398V2.33398C13.6673 1.80355 13.4566 1.29484 13.0815 0.919771C12.7065 0.544698 12.1978 0.333984 11.6673 0.333984H9.66732Z" fill="#717D96"/>
<path d="M1.66732 9.66732C1.66732 9.29913 1.36884 9.00065 1.00065 9.00065C0.632461 9.00065 0.333984 9.29913 0.333984 9.66732V11.6673C0.333984 12.1978 0.544698 12.7065 0.919771 13.0815C1.29484 13.4566 1.80355 13.6673 2.33398 13.6673H4.33398C4.70217 13.6673 5.00065 13.3688 5.00065 13.0007C5.00065 12.6325 4.70217 12.334 4.33398 12.334H2.33398C2.15717 12.334 1.9876 12.2637 1.86258 12.1387C1.73756 12.0137 1.66732 11.8441 1.66732 11.6673V9.66732Z" fill="#717D96"/>
<path d="M13.6673 9.66732C13.6673 9.29913 13.3688 9.00065 13.0007 9.00065C12.6325 9.00065 12.334 9.29913 12.334 9.66732V11.6673C12.334 11.8441 12.2637 12.0137 12.1387 12.1387C12.0137 12.2637 11.8441 12.334 11.6673 12.334H9.66732C9.29913 12.334 9.00065 12.6325 9.00065 13.0007C9.00065 13.3688 9.29913 13.6673 9.66732 13.6673H11.6673C12.1978 13.6673 12.7065 13.4566 13.0815 13.0815C13.4566 12.7065 13.6673 12.1978 13.6673 11.6673V9.66732Z" fill="#717D96"/>
</svg>
