<svg width="15" height="19" viewBox="0 0 15 19" fill="none" xmlns="http://www.w3.org/2000/svg">
<path fill-rule="evenodd" clip-rule="evenodd" d="M12.0188 2.04485C11.0104 1.71558 9.55421 1.51916 7.779 2.09888C5.64909 2.79445 3.85494 2.79961 2.57742 2.62081C2.27669 2.57872 2.00503 2.52652 1.76471 2.47094V11.1339C2.02838 11.2522 2.41482 11.3989 2.90658 11.5136C3.92726 11.7517 5.41235 11.855 7.221 11.2643C9.38294 10.5583 11.2067 10.6711 12.5021 10.9733C12.7701 11.0358 13.015 11.1063 13.2353 11.179V2.59521C13.22 2.58603 13.2043 2.57665 13.188 2.56709C12.9232 2.4114 12.5268 2.21073 12.0188 2.04485ZM13.5563 2.8102C13.5569 2.81068 13.5569 2.8107 13.5563 2.8102V2.8102ZM14.1176 2.14325L14.6825 1.47916C14.8837 1.64339 15 1.88669 15 2.14325V12.5166C15 12.8354 14.8209 13.1284 14.534 13.2788C14.2486 13.4285 13.9027 13.4129 13.6325 13.2387C13.6311 13.2378 13.6296 13.2369 13.6282 13.2359L14.1176 12.5166C13.6282 13.2359 13.6279 13.2357 13.6282 13.2359L13.6296 13.2368L13.6307 13.2375L13.6325 13.2387L13.6226 13.2326C13.6109 13.2255 13.5897 13.2129 13.5593 13.1959C13.4983 13.1619 13.4006 13.1103 13.2688 13.0501C13.0049 12.9294 12.6064 12.7749 12.0934 12.6552C11.0727 12.4171 9.58765 12.3138 7.779 12.9045C5.61706 13.6105 3.79333 13.4977 2.49784 13.1955C2.22991 13.133 1.98501 13.0625 1.76471 12.9898V18.1356C1.76471 18.613 1.36966 19 0.882353 19C0.395047 19 0 18.613 0 18.1356V1.2788C0 0.979195 0.158338 0.700955 0.418473 0.543452C0.677126 0.38684 0.999741 0.37179 1.27228 0.503342L1.28201 0.507794C1.29348 0.512963 1.31461 0.522273 1.34508 0.53479C1.40605 0.559842 1.50421 0.597679 1.63702 0.641048C1.90279 0.727848 2.30606 0.83638 2.82699 0.909287C3.86565 1.05466 5.38032 1.05982 7.221 0.45871C9.41638 -0.258253 11.269 -0.0224441 12.5768 0.404673C13.2269 0.616991 13.7404 0.875565 14.0959 1.08457C14.2741 1.18926 14.4136 1.28211 14.5119 1.35153C14.5611 1.38626 14.6001 1.41521 14.6287 1.43694C14.6429 1.4478 14.6546 1.45687 14.6636 1.46396L14.675 1.47311L14.6793 1.47652L14.681 1.47794L14.6818 1.47857C14.6822 1.47887 14.6825 1.47916 14.1176 2.14325Z" fill="#A1A8B2"/>
</svg>
