<svg width="20" height="21" viewBox="0 0 20 21" fill="none" xmlns="http://www.w3.org/2000/svg">
<path d="M18.2437 12.6206L18.2425 12.6195L17.6559 12.0995C17.6558 12.0994 17.6556 12.0992 17.6555 12.0991C17.5458 11.9996 17.4802 11.9109 17.4405 11.8133C17.4003 11.7147 17.3833 11.5989 17.3833 11.4397V8.33857C17.3833 6.5359 16.644 4.78548 15.4562 3.3972C14.0988 1.78978 12.2386 0.9 10.1872 0.9C10.1841 0.9 10.181 0.899996 10.1779 0.899991C10.1273 0.899921 10.0726 0.899846 10.0173 0.918025C9.94488 0.899971 9.87762 0.899989 9.83759 0.899999L9.83479 0.9C7.78426 0.9 5.90031 1.78914 4.56584 3.39716C3.35435 4.78565 2.61526 6.53611 2.61526 8.33857V11.416C2.61526 11.5626 2.59841 11.679 2.55771 11.7816C2.5174 11.8831 2.45117 11.9773 2.34305 12.0754C2.34291 12.0756 2.34277 12.0757 2.34263 12.0758L1.75605 12.5959L1.75604 12.5959L1.75485 12.597C1.21708 13.0895 0.924395 13.7545 0.900055 14.4902L0.9 14.4902V14.4935C0.9 15.2284 1.16777 15.9171 1.68092 16.4341C2.17011 16.927 2.83029 17.1975 3.53765 17.1975H8.77743H11.2446H16.4844C17.1917 17.1975 17.8519 16.927 18.3411 16.4341C18.8539 15.9175 19.1229 15.228 19.0985 14.5138L18.9985 14.5172L19.0985 14.5139C19.0741 13.7782 18.7814 13.1132 18.2437 12.6206ZM2.84851 13.8138L2.84858 13.8139L2.85209 13.8108L3.43951 13.29L3.43957 13.2901L3.44249 13.2873C3.98016 12.7702 4.22507 12.1518 4.22507 11.416V8.33857C4.22507 4.68349 7.15784 2.52037 9.83479 2.52037C9.83787 2.52037 9.84098 2.52037 9.8441 2.52038C9.89339 2.52045 9.94647 2.52052 10.0002 2.50377C10.0255 2.51106 10.0503 2.51478 10.0715 2.51691C10.1059 2.52037 10.1394 2.52037 10.1624 2.52037H10.1637C12.8407 2.52037 15.7735 4.68349 15.7735 8.33857V11.416C15.7735 12.1513 16.0181 12.771 16.5578 13.2652L16.559 13.2663L17.1456 13.7864C17.1457 13.7865 17.1458 13.7866 17.1459 13.7867C17.3587 13.9798 17.4652 14.2364 17.4652 14.5172C17.4652 14.798 17.3584 15.0589 17.1617 15.2791L17.1613 15.2796C16.9943 15.4688 16.7409 15.5771 16.4609 15.5771H11.2446H8.75393H3.53765C3.25763 15.5771 3.00418 15.4688 2.83724 15.2796L2.83737 15.2795L2.83323 15.2753C2.64199 15.0826 2.5333 14.801 2.5333 14.5172C2.5333 14.235 2.64052 13.9815 2.84851 13.8138Z" fill="#A1A8B2" stroke="#A1A8B2" stroke-width="0.2"/>
<path d="M11.6624 16.8039C11.6624 17.72 10.9076 18.4794 10.0002 18.4794C9.09275 18.4794 8.33793 17.72 8.33793 16.8039C8.33793 16.347 7.9884 15.9937 7.53303 15.9937C7.07765 15.9937 6.72812 16.347 6.72812 16.8039C6.72812 18.6102 8.2055 20.0998 10.0002 20.0998C11.7949 20.0998 13.2723 18.6102 13.2723 16.8039C13.2723 16.347 12.9227 15.9937 12.4674 15.9937C12.012 15.9937 11.6624 16.347 11.6624 16.8039Z" fill="#A1A8B2" stroke="#A1A8B2" stroke-width="0.2"/>
</svg>
