<svg width="40" height="40" viewBox="0 0 40 40" fill="none" xmlns="http://www.w3.org/2000/svg">
<path fill-rule="evenodd" clip-rule="evenodd" d="M10.0007 14.1673C10.0007 11.8661 11.8661 10.0007 14.1673 10.0007C16.4685 10.0007 18.334 11.8661 18.334 14.1673C18.334 16.4685 16.4685 18.334 14.1673 18.334C11.8661 18.334 10.0007 16.4685 10.0007 14.1673ZM14.1673 13.334C13.7071 13.334 13.334 13.7071 13.334 14.1673C13.334 14.6276 13.7071 15.0007 14.1673 15.0007C14.6276 15.0007 15.0007 14.6276 15.0007 14.1673C15.0007 13.7071 14.6276 13.334 14.1673 13.334Z" fill="#2D3648"/>
<path fill-rule="evenodd" clip-rule="evenodd" d="M3.33398 8.33398C3.33398 5.57256 5.57256 3.33398 8.33398 3.33398H31.6673C34.4287 3.33398 36.6673 5.57256 36.6673 8.33398V31.6673C36.6673 34.4287 34.4287 36.6673 31.6673 36.6673H8.33398C5.57256 36.6673 3.33398 34.4287 3.33398 31.6673V8.33398ZM8.33398 6.66732C7.41351 6.66732 6.66732 7.41351 6.66732 8.33398V31.6673C6.66732 32.382 7.11719 32.9917 7.74922 33.2285L25.4889 15.4888C26.1398 14.8379 27.1951 14.8379 27.846 15.4888L33.334 20.9768V8.33398C33.334 7.41351 32.5878 6.66732 31.6673 6.66732H8.33398ZM33.334 25.6909L26.6674 19.0243L12.3578 33.334H31.6673C32.5878 33.334 33.334 32.5878 33.334 31.6673V25.6909Z" fill="#2D3648"/>
</svg>
