<svg width="256" height="190" viewBox="0 0 256 190" fill="none" xmlns="http://www.w3.org/2000/svg">
<rect width="256" height="190" rx="10" fill="white"/>
<path fill-rule="evenodd" clip-rule="evenodd" d="M118.001 88.1666C118.001 85.8654 119.866 83.9999 122.167 83.9999C124.469 83.9999 126.334 85.8654 126.334 88.1666C126.334 90.4678 124.469 92.3333 122.167 92.3333C119.866 92.3333 118.001 90.4678 118.001 88.1666ZM122.167 87.3333C121.707 87.3333 121.334 87.7063 121.334 88.1666C121.334 88.6268 121.707 88.9999 122.167 88.9999C122.628 88.9999 123.001 88.6268 123.001 88.1666C123.001 87.7063 122.628 87.3333 122.167 87.3333Z" fill="#2D3648"/>
<path fill-rule="evenodd" clip-rule="evenodd" d="M111.334 82.3333C111.334 79.5718 113.573 77.3333 116.334 77.3333H139.667C142.429 77.3333 144.667 79.5718 144.667 82.3333V105.667C144.667 108.428 142.429 110.667 139.667 110.667H116.334C113.573 110.667 111.334 108.428 111.334 105.667V82.3333ZM116.334 80.6666C115.414 80.6666 114.667 81.4128 114.667 82.3333V105.667C114.667 106.381 115.117 106.991 115.749 107.228L133.489 89.4881C134.14 88.8372 135.195 88.8372 135.846 89.4881L141.334 94.9761V82.3333C141.334 81.4128 140.588 80.6666 139.667 80.6666H116.334ZM141.334 99.6901L134.667 93.0236L120.358 107.333H139.667C140.588 107.333 141.334 106.587 141.334 105.667V99.6901Z" fill="#2D3648"/>
</svg>
