<svg width="16" height="16" viewBox="0 0 16 16" fill="none" xmlns="http://www.w3.org/2000/svg">
<path d="M8 0C6.41775 0 4.87103 0.469192 3.55544 1.34824C2.23985 2.22729 1.21447 3.47672 0.608967 4.93853C0.00346627 6.40034 -0.15496 8.00887 0.153721 9.56072C0.462403 11.1126 1.22433 12.538 2.34315 13.6569C3.46197 14.7757 4.88743 15.5376 6.43928 15.8463C7.99113 16.155 9.59966 15.9965 11.0615 15.391C12.5233 14.7855 13.7727 13.7602 14.6518 12.4446C15.5308 11.129 16 9.58225 16 8C15.9977 5.87896 15.1541 3.84545 13.6543 2.34565C12.1545 0.845852 10.121 0.00226889 8 0ZM8 14.8571C6.64379 14.8571 5.31803 14.455 4.19038 13.7015C3.06273 12.948 2.18383 11.8771 1.66483 10.6241C1.14583 9.37113 1.01003 7.99239 1.27462 6.66224C1.5392 5.33208 2.19228 4.11026 3.15127 3.15127C4.11026 2.19228 5.33209 1.5392 6.66224 1.27461C7.9924 1.01003 9.37114 1.14582 10.6241 1.66483C11.8771 2.18383 12.948 3.06272 13.7015 4.19037C14.455 5.31803 14.8571 6.64378 14.8571 8C14.8552 9.81802 14.1321 11.561 12.8466 12.8466C11.561 14.1321 9.81803 14.8552 8 14.8571ZM12.404 5.31029C12.5111 5.41744 12.5713 5.56276 12.5713 5.71428C12.5713 5.86581 12.5111 6.01113 12.404 6.11828L7.83257 10.6897C7.72542 10.7968 7.5801 10.857 7.42857 10.857C7.27705 10.857 7.13173 10.7968 7.02457 10.6897L4.16743 7.83257C4.06334 7.7248 4.00574 7.58045 4.00705 7.43063C4.00835 7.2808 4.06844 7.13748 4.17439 7.03153C4.28034 6.92558 4.42366 6.86549 4.57349 6.86419C4.72332 6.86288 4.86766 6.92048 4.97543 7.02457L7.42857 9.47771L11.596 5.31029C11.7032 5.20316 11.8485 5.14298 12 5.14298C12.1515 5.14298 12.2968 5.20316 12.404 5.31029Z" fill="#1BB38F"/>
</svg>
