<svg width="500" height="90" fill="none" xmlns="http://www.w3.org/2000/svg"><mask id="a" style="mask-type:luminance" maskUnits="userSpaceOnUse" x="0" y="0" width="90" height="90"><path d="M89.476 0H0v89.476h89.476V0Z" fill="#fff"/></mask><g mask="url(#a)"><mask id="b" style="mask-type:luminance" maskUnits="userSpaceOnUse" x="0" y="0" width="90" height="90"><path d="M89.476 0H0v89.476h89.476V0Z" fill="#fff"/></mask><g mask="url(#b)"><mask id="c" style="mask-type:luminance" maskUnits="userSpaceOnUse" x="0" y="0" width="90" height="90"><path d="M89.476.005H0v89.476h89.476V.005Z" fill="#fff"/></mask><g clip-path="url(#d)" mask="url(#c)"><path d="M44.74 83.217c-21.249 0-38.475-17.226-38.475-38.475 0-21.249 17.226-38.474 38.475-38.474 21.25 0 38.475 17.225 38.475 38.474 0 21.25-17.226 38.475-38.475 38.475Z" fill="#fff"/><path d="M59.147 33.737c0 1.342-.403 2.64-1.119 3.758-.268.402-.582.76-.895 1.073L46.486 49.216a2.107 2.107 0 0 1-2.953 0L32.885 38.568a7.119 7.119 0 0 1-.894-1.073c-2.058-3.132-1.208-7.337 1.923-9.44 2.327-1.521 5.324-1.521 7.606.045l2.326 1.566a2.088 2.088 0 0 0 2.371 0l2.013-1.387c2.73-1.88 6.98-1.61 9.216.85 1.074 1.297 1.7 2.908 1.7 4.608Z" fill="#FC2B2B"/><path d="M44.74.004C20.045.004.002 20.047.002 44.742c0 24.696 20.043 44.738 44.738 44.738 24.696 0 44.738-20.042 44.738-44.738C89.434 20.047 69.436.05 44.741.004Zm2.908 6.756c20.938 1.61 36.64 19.863 35.075 40.8-.492 6.577-2.64 12.84-6.263 18.254a4.954 4.954 0 0 1-3.356 2.192c-1.968.403-3.981.671-6.04.85a28.712 28.712 0 0 1-9.17-.671 13.265 13.265 0 0 1-7.024-4.205 11.828 11.828 0 0 1-2.685-7.337v-.895c0-.627.224-1.208.671-1.655l10.424-10.38a11.358 11.358 0 0 0 1.61-2.013c3.356-5.1 2.685-11.856-1.61-16.15-3.713-3.714-9.35-4.787-14.137-2.685-.179.09-.403.09-.626 0-6.532-2.773-14.093.269-16.866 6.8a12.76 12.76 0 0 0 1.073 12.08 14.136 14.136 0 0 0 1.656 2.013l10.379 10.335c.447.447.67 1.028.67 1.655v1.118a11.87 11.87 0 0 1-2.683 7.158 13.53 13.53 0 0 1-6.98 4.161c-2.997.716-6.084.94-9.17.671a57.735 57.735 0 0 1-6.22-.85 5.17 5.17 0 0 1-3.355-2.237C1.39 48.232 6.221 24.61 23.714 12.98a38.37 38.37 0 0 1 23.934-6.22Zm-1.297 40.309-.716.715a1.188 1.188 0 0 1-1.655 0l-8.813-8.858c-2.372-2.37-2.372-6.263 0-8.634 1.163-1.119 2.684-1.79 4.294-1.79a6.03 6.03 0 0 1 3.445 1.074l1.253.85c.403.269.94.269 1.342 0l1.253-.85c2.818-1.879 6.576-1.163 8.455 1.655 1.61 2.416 1.342 5.637-.716 7.695l-8.142 8.143ZM23.982 76.64c-.224-.18-.313-.493-.134-.716a.55.55 0 0 1 .447-.224c1.119.045 2.282 0 3.445-.09 1.924-.089 3.848-.402 5.771-.894 1.969-.537 3.848-1.298 5.592-2.327a18.998 18.998 0 0 0 4.832-4.026c.403-.492 1.163-.537 1.655-.134l.135.134a19 19 0 0 0 4.831 4.026 23.794 23.794 0 0 0 5.637 2.327c1.88.492 3.803.805 5.772.895 1.073.089 2.192.089 3.266.089.313 0 .536.224.536.537a.55.55 0 0 1-.223.447c-12.661 8.187-28.946 8.187-41.562-.044Z" fill="#1B76FF"/></g></g></g><path d="M491.41 18.19 500 71.876h-8.513l-1.457-9.74h-10.354l-1.457 9.74h-7.746l8.589-53.686h12.348Zm-6.596 9.51-4.064 27.15h8.129l-4.065-27.15ZM442.857 18.19l6.212 38.117 5.752-38.117h11.735v53.686h-7.977v-38.5l-5.828 38.5h-7.976l-6.289-37.964v37.964h-7.363V18.19h11.734ZM414.715 18.19c8.437 0 12.578 4.678 12.578 13.268v6.98c0 8.589-4.141 13.267-12.578 13.267h-3.988v20.17h-8.436V18.19h12.424Zm0 7.67h-3.988v18.176h3.988c2.685 0 4.142-1.227 4.142-5.062v-8.053c0-3.834-1.457-5.062-4.142-5.062ZM379.634 30.538v28.99c0 3.835 1.687 5.292 4.371 5.292s4.372-1.457 4.372-5.292v-28.99c0-3.835-1.688-5.292-4.372-5.292s-4.371 1.457-4.371 5.292Zm-8.437 28.453V31.075c0-8.59 4.525-13.499 12.808-13.499s12.808 4.909 12.808 13.498v27.917c0 8.59-4.525 13.498-12.808 13.498s-12.808-4.908-12.808-13.498ZM342.199 71.876v-6.06h-3.145c-8.436 0-12.577-4.677-12.577-13.267V37.9c0-8.59 4.141-13.268 12.577-13.268h3.145V18.19h8.283v6.442h3.144c8.436 0 12.578 4.679 12.578 13.268V52.55c0 8.59-4.142 13.268-12.578 13.268h-3.144v6.059h-8.283Zm11.427-39.804h-3.144v26.382h3.144c2.684 0 4.218-1.534 4.218-5.368V37.364c0-3.835-1.534-5.292-4.218-5.292Zm-11.427 26.382V32.072h-3.145c-2.684 0-4.218 1.457-4.218 5.291v15.723c0 3.834 1.534 5.368 4.218 5.368h3.145ZM297.379 25.86v-7.67h26.076v7.67h-8.82v46.016h-8.436V25.859h-8.82ZM287.32 18.19l8.59 53.686h-8.513l-1.457-9.74h-10.354l-1.457 9.74h-7.746l8.59-53.686h12.347Zm-6.595 9.51-4.065 27.15h8.129l-4.064-27.15ZM231.697 71.952v-7.669c3.835 0 5.062-.537 5.215-5.522l1.381-40.57h23.852v53.685h-8.59V25.859h-7.363l-.92 32.442c-.307 9.817-3.835 13.651-12.271 13.651h-1.304ZM209.782 25.86v46.016h-8.436V18.19h26.612v53.686h-8.589V25.859h-9.587ZM178.68 30.538v28.99c0 3.835 1.688 5.292 4.372 5.292s4.372-1.457 4.372-5.292v-28.99c0-3.835-1.688-5.292-4.372-5.292s-4.372 1.457-4.372 5.292Zm-8.436 28.453V31.075c0-8.59 4.525-13.499 12.808-13.499s12.808 4.909 12.808 13.498v27.917c0 8.59-4.525 13.498-12.808 13.498s-12.808-4.908-12.808-13.498ZM148.272 30.538v28.99c0 3.835 1.688 5.292 4.372 5.292s4.371-1.457 4.371-5.292v-28.99c0-3.835-1.687-5.292-4.371-5.292s-4.372 1.457-4.372 5.292Zm-8.436 28.453V31.075c0-8.59 4.525-13.499 12.808-13.499s12.808 4.909 12.808 13.498v27.917c0 8.59-4.525 13.498-12.808 13.498s-12.808-4.908-12.808-13.498ZM126.381 34.372v-2.99c0-4.833-1.687-6.136-4.371-6.136s-4.448 1.457-4.448 5.292v4.371h-7.747v-3.988c0-8.59 4.142-13.345 12.425-13.345 8.283 0 12.578 4.909 12.578 13.498v1.38c0 5.753-1.841 9.358-5.906 11.045 4.218 1.84 5.906 5.828 5.906 11.274v4.218c0 8.59-4.295 13.498-12.578 13.498s-12.578-4.908-12.578-13.498v-5.905h7.976v6.442c0 3.834 1.688 5.292 4.372 5.292s4.371-1.304 4.371-6.06v-4.217c0-4.985-1.687-6.826-5.522-6.826h-2.07v-7.67h2.531c3.144 0 5.061-1.38 5.061-5.675Z" fill="#1B76FF"/><defs><clipPath id="d"><path fill="#fff" transform="matrix(-1 0 0 1 89.478 .004)" d="M0 0h89.476v89.476H0z"/></clipPath></defs></svg>