<svg width="90" height="90" viewBox="0 0 90 90" fill="none" xmlns="http://www.w3.org/2000/svg">
<path d="M44.7401 83.217C23.4911 83.217 6.26543 65.9913 6.26543 44.7423C6.26543 23.4933 23.4911 6.26758 44.7401 6.26758C65.9891 6.26758 83.2148 23.4933 83.2148 44.7423C83.2148 65.9913 65.9891 83.217 44.7401 83.217Z" fill="white"/>
<path d="M59.1465 33.7367C59.1465 35.0788 58.7438 36.3762 58.028 37.4947C57.7596 37.8973 57.4464 38.2552 57.1333 38.5684L46.4856 49.2161C45.6803 50.0213 44.3382 50.0213 43.5329 49.2161L32.8853 38.5684C32.5721 38.2552 32.2589 37.8973 31.9905 37.4947C29.9326 34.363 30.7826 30.1577 33.9142 28.055C36.2406 26.5339 39.2381 26.5339 41.5197 28.0997L43.8461 29.6655C44.5619 30.1577 45.5014 30.1577 46.2172 29.6655L48.2304 28.2787C50.9594 26.3997 55.2095 26.6681 57.4464 29.1287C58.5202 30.4261 59.1465 32.0367 59.1465 33.7367Z" fill="#FC2B2B"/>
<path d="M44.7405 0.00427246C20.0451 0.00427246 0.00245667 20.0469 0.00245667 44.7423C0.00245667 69.4377 20.0451 89.4803 44.7405 89.4803C69.4359 89.4803 89.4785 69.4377 89.4785 44.7423C89.4338 20.0469 69.4359 0.0490105 44.7405 0.00427246ZM47.6485 6.75972C68.5859 8.37028 84.2889 26.6234 82.7231 47.5608C82.231 54.1373 80.0835 60.4006 76.4597 65.8139C75.6992 66.9771 74.4913 67.7824 73.1044 68.0061C71.1359 68.4087 69.1227 68.6771 67.0648 68.8561C63.9778 69.1245 60.8909 68.9008 57.8935 68.185C55.1644 67.5587 52.7039 66.0823 50.8696 63.9797C49.1695 61.9217 48.23 59.3269 48.1853 56.6426V55.7479C48.1853 55.1215 48.409 54.5399 48.8564 54.0926L59.2803 43.7133C59.9067 43.087 60.4435 42.4159 60.8909 41.7001C64.2463 36.6 63.5752 29.8445 59.2803 25.5497C55.5671 21.8364 49.9301 20.7627 45.1431 22.8654C44.9642 22.9549 44.7405 22.9549 44.5168 22.8654C37.985 20.0916 30.4243 23.1338 27.6506 29.6656C25.9505 33.6025 26.3532 38.1658 28.7243 41.7449C29.2164 42.4607 29.7532 43.1317 30.3796 43.7581L40.7588 54.0926C41.2062 54.5399 41.4299 55.1215 41.4299 55.7479V56.8663C41.3404 59.5059 40.4009 62.0112 38.7456 64.0244C36.9113 66.0823 34.4507 67.5587 31.7665 68.185C28.769 68.9008 25.6821 69.1245 22.5952 68.8561C20.4925 68.6771 18.4345 68.4087 16.3766 68.0061C14.9897 67.7376 13.7818 66.9324 13.0212 65.7692C1.38934 48.2319 6.22104 24.6102 23.7136 12.9783C30.7822 8.32555 39.193 6.13338 47.6485 6.75972ZM46.3511 47.0687L45.6352 47.7845C45.1879 48.2319 44.4273 48.2319 43.9799 47.7845L35.1665 38.9264C32.7954 36.5552 32.7954 32.663 35.1665 30.2919C36.3297 29.1735 37.8508 28.5024 39.4614 28.5024C40.6693 28.5024 41.8773 28.8603 42.9062 29.5761L44.1589 30.4261C44.5615 30.6946 45.0984 30.6946 45.501 30.4261L46.7537 29.5761C49.5722 27.6971 53.3302 28.4129 55.2092 31.2314C56.8198 33.6473 56.5513 36.8684 54.4934 38.9264L46.3511 47.0687ZM23.982 76.6405C23.7584 76.4616 23.6689 76.1484 23.8478 75.9247C23.9373 75.7905 24.1163 75.701 24.2952 75.701C25.4137 75.7458 26.5768 75.701 27.74 75.6115C29.6638 75.5221 31.5875 75.2089 33.5112 74.7168C35.4797 74.1799 37.3587 73.4194 39.1035 72.3904C40.9378 71.3167 42.5483 69.9746 43.9352 68.364C44.3378 67.8719 45.0984 67.8271 45.5905 68.2298C45.6352 68.2745 45.68 68.3192 45.7247 68.364C47.1116 69.9746 48.7222 71.3167 50.5564 72.3904C52.346 73.4194 54.2249 74.1799 56.1934 74.7168C58.0724 75.2089 59.9962 75.5221 61.9646 75.6115C63.0383 75.701 64.1568 75.701 65.2305 75.701C65.5437 75.701 65.7674 75.9247 65.7674 76.2379C65.7674 76.4168 65.6779 76.5958 65.5437 76.6853C52.8828 84.8723 36.5982 84.8723 23.982 76.6405Z" fill="#1B76FF"/>
</svg>
