<svg width="15" height="12" viewBox="0 0 15 12" fill="currentColor" xmlns="http://www.w3.org/2000/svg">
<path fill-rule="evenodd" clip-rule="evenodd" d="M1.71374 5.14751H0.610386C0.105448 5.14751 -0.179987 5.59863 0.126314 6.00515L2.0192 9.8096C2.26291 10.1338 2.73029 10.0969 2.98818 9.68096L4.88107 6.00515C5.18737 5.59863 4.90194 5.14751 4.39784 5.14751H3.40716C3.79441 3.19125 5.48032 1.71441 7.49673 1.71527C8.33385 1.71441 9.1092 1.97513 9.75936 2.41681L10.957 1.18611C9.98637 0.446827 8.79455 0 7.49673 0C4.55892 0 2.11936 2.24185 1.71374 5.14751ZM13.2564 6.85763H14.3898C14.8939 6.85763 15.1801 6.40652 14.8738 5.99914L12.9801 2.19554C12.7364 1.87135 12.2707 1.90738 12.012 2.32333L10.1191 5.99914C9.81194 6.40737 10.0982 6.85763 10.6031 6.85763H11.5629C11.1732 8.81132 9.48811 10.2864 7.4742 10.2864C6.63709 10.2864 5.8609 10.0266 5.21074 9.5849L4.01392 10.8156C4.9829 11.5549 6.17639 12.0009 7.4742 12C10.4112 12.0009 12.8491 9.76243 13.2564 6.85763Z"/>
</svg>
